<?xml version="1.0" standalone="no"?>
<!DOCTYPE svg PUBLIC "-//W3C//DTD SVG 20010904//EN"
 "http://www.w3.org/TR/2001/REC-SVG-20010904/DTD/svg10.dtd">
<svg version="1.0" xmlns="http://www.w3.org/2000/svg"
 width="480.000000pt" height="480.000000pt" viewBox="0 0 480.000000 480.000000"
 preserveAspectRatio="xMidYMid meet">

<g transform="translate(0.000000,480.000000) scale(0.100000,-0.100000)"
fill="#000000" stroke="none">
<path d="M2275 4794 c-132 -10 -261 -28 -370 -51 -864 -180 -1561 -830 -1810
-1687 -101 -351 -117 -760 -44 -1128 151 -758 677 -1412 1387 -1722 207 -91
456 -158 687 -187 129 -16 421 -16 550 0 970 120 1759 791 2030 1725 101 351
117 760 44 1128 -138 693 -590 1301 -1219 1641 -243 132 -568 234 -845 266
-104 12 -337 20 -410 15z m-12 -404 c5 -19 -4 -23 -83 -33 -8 -1 -16 -13 -18
-25 -3 -22 -1 -23 45 -21 43 3 48 1 51 -18 3 -19 -2 -22 -40 -25 l-43 -3 3
-47 c3 -45 2 -48 -21 -48 -23 0 -25 4 -37 106 -6 58 -10 107 -8 110 4 4 86 18
134 23 7 0 14 -8 17 -19z m411 -1 c19 -17 -2 -39 -32 -33 -27 6 -29 4 -35 -33
-4 -21 -7 -61 -7 -89 0 -58 -3 -64 -32 -56 -20 5 -20 10 -15 92 l7 88 -30 6
c-21 4 -30 11 -30 25 0 18 6 19 83 14 45 -3 86 -9 91 -14z m102 -54 c-8 -48
-8 -47 46 -59 26 -6 28 -4 34 34 6 34 10 40 30 40 29 0 29 -1 2 -122 -20 -89
-24 -98 -45 -98 -25 0 -27 7 -14 63 8 33 7 38 -13 42 -58 13 -60 12 -70 -32
-7 -36 -13 -43 -32 -43 -13 0 -24 3 -24 8 0 4 10 53 22 110 20 96 23 102 46
102 23 0 24 -2 18 -45z m-762 21 c38 -16 66 -66 66 -120 0 -50 -42 -96 -95
-102 -51 -6 -85 12 -107 56 -37 73 -12 150 55 169 44 13 44 13 81 -3z m1116
-98 c0 -22 -12 -22 -69 -2 -29 10 -47 12 -54 5 -18 -18 1 -38 47 -51 27 -7 46
-18 46 -27 0 -22 -23 -25 -70 -8 -35 12 -45 13 -52 3 -18 -30 -7 -45 47 -62
56 -17 61 -22 47 -43 -6 -10 -26 -7 -85 13 -42 14 -77 29 -77 33 0 6 48 155
65 198 7 20 155 -36 155 -59z m-1570 -140 l33 -77 36 16 c45 20 73 22 78 5 4
-11 -110 -72 -135 -72 -5 0 -28 44 -52 97 -40 91 -41 97 -24 110 22 16 24 15
64 -79z m1879 7 c65 -38 82 -67 62 -104 -13 -24 -48 -44 -64 -38 -9 3 -11 -13
-9 -56 l4 -61 -24 16 c-18 12 -24 26 -26 64 -3 46 -15 74 -32 74 -5 0 -17 -16
-29 -35 -21 -37 -28 -40 -50 -26 -11 7 -3 28 40 105 30 53 57 96 61 96 4 0 34
-16 67 -35z m-1990 -31 c41 -34 58 -92 41 -135 -16 -38 -64 -69 -106 -69 -58
0 -114 66 -114 132 1 85 111 129 179 72z m1176 9 c61 -9 142 -16 182 -17 58
-1 76 -6 95 -23 13 -11 55 -33 93 -48 39 -16 93 -39 120 -52 28 -14 70 -26 95
-28 35 -3 50 -10 67 -32 32 -39 35 -42 148 -126 119 -88 286 -260 370 -377 33
-47 64 -87 69 -89 27 -11 56 -53 56 -80 0 -17 16 -67 36 -112 20 -45 45 -107
55 -136 10 -30 30 -69 45 -86 22 -26 25 -38 20 -73 -3 -23 2 -82 11 -131 23
-119 23 -443 1 -563 -8 -47 -13 -104 -10 -128 3 -36 0 -48 -21 -70 -13 -15
-32 -52 -42 -82 -10 -30 -36 -93 -58 -140 -22 -47 -41 -103 -42 -125 -2 -29
-10 -45 -32 -62 -39 -32 -42 -35 -127 -149 -86 -116 -251 -278 -355 -349 -39
-27 -71 -52 -71 -57 0 -21 -51 -58 -80 -58 -17 0 -58 -14 -92 -31 -34 -17
-103 -47 -152 -66 -50 -19 -96 -43 -103 -53 -16 -23 -55 -32 -87 -21 -15 7
-37 6 -58 0 -56 -16 -267 -39 -358 -39 -47 0 -125 5 -175 12 -49 6 -127 11
-172 12 -68 1 -85 4 -105 22 -13 12 -54 32 -93 44 -38 13 -103 38 -144 56 -44
21 -82 32 -95 28 -34 -8 -77 13 -88 44 -7 18 -34 43 -72 68 -141 91 -313 253
-420 397 -32 42 -64 77 -71 77 -21 0 -47 37 -50 73 -2 19 -21 69 -42 113 -22
43 -50 106 -63 139 -13 33 -35 73 -49 88 -22 24 -26 38 -27 95 0 37 -8 108
-18 157 -25 130 -31 328 -15 460 7 61 13 139 11 174 -2 53 2 69 18 86 11 12
33 60 49 107 16 48 41 113 54 145 14 32 28 75 32 96 3 22 14 43 26 50 11 6 34
35 51 62 102 165 291 371 451 488 42 31 77 61 77 67 0 20 45 50 76 50 18 0 48
9 66 19 18 11 85 41 148 66 63 25 125 56 138 68 18 17 37 21 100 23 42 2 120
9 172 17 128 20 322 20 455 0z m1035 -130 c52 -42 57 -50 45 -62 -13 -13 -20
-11 -55 18 -40 32 -70 35 -70 7 0 -8 18 -27 40 -44 34 -25 38 -31 27 -46 -12
-16 -16 -15 -51 13 -45 36 -48 37 -70 12 -16 -18 -15 -20 34 -56 46 -34 50
-39 36 -53 -13 -14 -21 -11 -70 27 -30 23 -59 48 -65 55 -7 8 8 35 55 94 36
45 70 82 75 82 5 0 36 -21 69 -47z m-2415 -36 c57 -57 58 -117 3 -169 -46 -43
-99 -40 -149 11 -33 33 -39 45 -39 81 0 34 6 48 34 76 28 28 42 34 76 34 34 0
48 -6 75 -33z m2584 -112 c37 -42 40 -79 9 -112 -28 -30 -59 -29 -96 2 -37 31
-40 31 -73 -1 -26 -25 -29 -26 -45 -10 -16 17 -13 22 61 96 87 88 89 88 144
25z m-2737 -104 c45 -42 47 -46 31 -63 -16 -18 -18 -17 -50 14 l-33 32 -30
-29 -30 -29 30 -31 c30 -31 33 -65 6 -65 -6 0 -45 34 -86 75 -68 68 -73 76
-59 91 15 14 19 13 48 -12 l32 -27 24 23 c31 29 31 37 0 62 -28 21 -31 38 -13
56 13 13 18 9 130 -97z m2859 -27 c12 -15 9 -21 -25 -48 -98 -77 -101 -81 -88
-110 17 -37 40 -33 112 23 48 38 67 47 77 39 7 -6 13 -16 13 -23 0 -17 -139
-115 -164 -115 -47 0 -101 72 -89 119 5 19 127 130 144 131 4 0 13 -7 20 -16z
m-3108 -80 c24 -9 9 -44 -19 -44 -32 0 -59 -41 -45 -69 16 -29 61 -61 86 -61
33 0 48 24 41 64 -5 27 -3 35 11 40 44 17 57 -65 18 -112 -47 -55 -123 -47
-179 19 -37 44 -32 101 14 142 31 27 46 32 73 21z m3286 -168 c33 -55 34 -60
20 -85 -9 -15 -25 -27 -40 -29 -17 -2 -28 -12 -36 -32 -12 -32 -55 -50 -82
-33 -18 11 -91 112 -91 125 0 13 163 117 180 115 8 -1 30 -29 49 -61z m-3421
-34 c17 -11 4 -42 -17 -42 -24 0 -41 -20 -41 -47 0 -31 11 -29 45 7 52 54 113
57 136 6 15 -33 4 -73 -31 -107 -28 -28 -73 -39 -84 -20 -11 17 6 41 28 41 28
0 46 18 46 47 0 32 -27 30 -65 -6 -16 -16 -39 -32 -51 -35 -26 -8 -74 28 -74
55 0 28 26 75 52 93 25 18 37 19 56 8z m3512 -126 c0 -2 3 -12 6 -20 5 -12
-12 -24 -72 -52 -44 -20 -80 -37 -82 -38 -1 -2 7 -24 18 -50 12 -25 18 -51 15
-56 -15 -24 -34 -5 -63 61 l-31 70 92 44 c85 40 117 51 117 41z m84 -193 c9
-23 4 -26 -99 -67 -93 -38 -115 -39 -115 -9 0 13 25 28 93 54 108 43 113 44
121 22z m-3610 -92 c6 -9 -31 -130 -44 -144 -5 -6 -195 54 -207 66 -7 8 10 37
21 37 7 0 46 -11 86 -25 40 -14 75 -25 76 -25 1 0 10 23 19 50 15 46 36 63 49
41z m3627 -21 c24 -13 49 -61 49 -93 0 -14 -9 -35 -20 -48 -19 -23 -20 -23
-35 -5 -12 16 -12 22 -1 38 18 25 9 57 -20 68 -26 10 -86 -4 -104 -25 -19 -22
-8 -59 23 -73 35 -17 37 -52 3 -52 -83 0 -108 135 -33 180 35 22 106 27 138
10z m-3681 -175 c0 -20 -6 -27 -29 -31 -43 -9 -58 -84 -21 -104 20 -11 27 -44
12 -54 -4 -3 -52 21 -105 52 -84 49 -97 61 -97 84 0 24 5 28 58 38 31 7 82 18
112 25 30 7 58 14 63 14 4 1 7 -10 7 -24z m-137 -205 c43 -5 83 -10 88 -10 5
0 9 -11 9 -25 0 -25 -1 -26 -52 -19 -83 9 -170 23 -174 27 -2 1 -1 13 3 25 4
16 11 21 27 17 11 -2 56 -9 99 -15z m3899 -59 c28 -25 33 -36 33 -73 0 -58
-25 -94 -75 -109 -31 -9 -49 -9 -80 0 -50 15 -75 51 -75 109 0 37 5 48 33 73
26 24 41 29 82 29 41 0 56 -5 82 -29z m-3992 -56 l0 -35 90 0 90 0 0 -26 0
-27 -89 6 -89 7 -6 -35 c-5 -27 -12 -35 -28 -35 -20 0 -20 4 -14 61 3 34 6 75
6 90 0 22 5 29 20 29 16 0 20 -7 20 -35z m3978 -181 l42 -5 0 -59 c0 -72 -6
-90 -32 -90 -18 0 -19 5 -13 55 7 54 7 55 -19 55 -22 0 -26 -4 -26 -29 0 -42
-10 -61 -31 -61 -17 0 -18 5 -13 41 8 47 -3 59 -53 59 -29 0 -33 3 -33 25 0
25 0 26 68 20 37 -3 86 -8 110 -11z m-3798 -21 c0 -22 -10 -35 -50 -62 -82
-56 -82 -61 -6 -54 63 6 66 5 66 -15 0 -25 -11 -29 -132 -36 l-88 -6 0 25 c0
19 15 35 62 70 l62 45 -67 0 c-59 0 -67 2 -67 19 0 20 16 24 145 34 22 2 48 4
58 5 12 2 17 -5 17 -25z m26 -220 c3 -16 12 -52 19 -80 7 -29 10 -55 6 -58 -5
-2 -54 -15 -110 -28 -71 -17 -104 -21 -106 -13 -5 13 -35 145 -35 152 0 2 9 4
20 4 14 0 22 -11 30 -42 19 -74 21 -77 47 -60 9 5 9 20 1 56 -8 38 -7 50 3 57
20 12 28 2 35 -40 8 -52 16 -61 42 -54 25 6 27 20 11 76 -5 20 -7 42 -4 47 12
19 35 10 41 -17z m3690 -145 c67 -19 74 -23 68 -42 -4 -12 -7 -22 -8 -23 -1
-1 -32 7 -69 18 -77 23 -105 22 -121 -3 -19 -30 6 -51 85 -74 50 -14 75 -26
77 -37 2 -10 -3 -20 -11 -23 -20 -7 -157 34 -179 54 -22 19 -23 73 -3 112 24
47 52 50 161 18z m-3648 -81 c26 -28 58 -115 46 -126 -16 -15 -198 -71 -205
-63 -4 4 -14 31 -23 60 -13 46 -14 59 -2 86 26 63 141 89 184 43z m3472 -87
c10 -5 37 -44 60 -87 l43 -77 16 41 c20 51 26 57 44 46 13 -7 11 -18 -13 -78
-15 -38 -34 -71 -43 -73 -16 -3 -39 26 -82 106 -16 28 -32 52 -36 52 -4 0 -15
-22 -25 -50 -17 -48 -35 -62 -49 -39 -6 9 52 169 62 169 2 0 13 -4 23 -10z
m-3390 -100 c10 -18 3 -23 -74 -59 -119 -55 -123 -56 -131 -31 -4 12 -5 23 -3
24 9 6 184 84 190 85 4 1 12 -8 18 -19z m23 -81 c53 -24 76 -119 38 -153 -19
-17 -20 -17 -31 4 -9 16 -9 25 -1 33 17 17 13 42 -8 61 -32 29 -44 11 -36 -54
6 -51 4 -61 -14 -79 -27 -27 -53 -27 -86 2 -34 29 -45 95 -20 121 16 16 18 16
30 -1 9 -12 10 -23 4 -35 -12 -22 5 -58 27 -58 12 0 13 11 8 63 -6 61 -5 65
21 85 32 25 36 26 68 11z m3379 -69 l78 -44 -27 -45 c-53 -94 -85 -111 -127
-66 -15 16 -29 22 -44 19 -24 -7 -72 34 -72 61 0 9 16 46 36 81 34 61 37 64
58 51 11 -7 56 -33 98 -57z m-3228 -156 c26 -37 44 -70 39 -74 -20 -19 -167
-120 -174 -120 -4 0 -28 29 -52 64 -40 58 -44 66 -30 78 14 11 19 9 37 -16 49
-68 50 -68 69 -54 17 12 16 16 -13 55 -31 41 -32 63 -6 63 7 0 25 -18 40 -40
17 -25 31 -38 39 -34 37 22 38 26 1 77 -28 39 -33 52 -22 58 21 14 22 13 72
-57z m3086 -34 c46 -33 86 -62 88 -64 5 -6 -90 -136 -100 -136 -22 0 -17 33
11 73 27 40 29 46 15 58 -14 11 -20 8 -45 -21 -16 -19 -29 -38 -29 -42 0 -12
-28 -9 -36 3 -3 6 8 30 25 54 31 43 31 48 -6 69 -7 4 -24 -11 -43 -39 -30 -43
-52 -56 -65 -35 -6 9 83 140 95 140 4 0 45 -27 90 -60z m-3001 -83 c9 -17 9
-30 2 -51 -12 -30 -14 -79 -5 -89 4 -4 24 7 44 23 32 26 39 28 50 15 6 -8 10
-18 8 -23 -1 -5 -38 -40 -82 -78 l-79 -69 -43 50 c-24 28 -47 60 -50 72 -12
46 38 89 84 72 19 -7 22 -5 22 15 0 29 19 86 29 86 4 0 13 -10 20 -23z m2871
-102 c68 -68 73 -76 59 -91 -15 -14 -19 -13 -47 11 l-32 27 0 -65 c0 -51 -4
-67 -20 -82 -20 -18 -20 -17 -20 31 0 27 -4 55 -8 62 -5 7 -37 17 -73 23 -77
14 -86 20 -60 44 18 15 26 16 65 6 25 -6 50 -11 55 -11 19 0 12 43 -10 66 -22
24 -20 54 3 54 8 0 47 -34 88 -75z m-166 -162 c36 -43 66 -83 66 -89 0 -15
-31 -27 -40 -17 -3 4 -34 40 -68 79 -34 39 -62 76 -62 82 0 9 14 19 31 21 4 1
37 -34 73 -76z m-2567 1 l35 -26 29 28 c27 25 31 27 45 12 14 -14 9 -23 -56
-97 -40 -44 -75 -81 -78 -81 -4 0 -28 21 -54 47 -55 54 -60 82 -23 118 31 32
60 32 102 -1z m2461 -10 c32 -22 12 -48 -30 -39 -31 7 -68 -15 -68 -41 0 -22
18 -25 56 -9 70 29 124 12 124 -39 0 -31 -33 -72 -67 -84 -29 -10 -73 0 -73
16 0 17 26 31 46 26 12 -3 27 2 38 15 30 33 11 41 -49 20 -65 -23 -101 -14
-112 28 -10 37 -6 53 20 82 39 41 79 50 115 25z m-2167 -106 c38 -24 69 -46
69 -51 0 -5 -103 -171 -115 -185 -6 -7 -135 82 -135 94 0 24 19 25 57 1 21
-13 43 -26 48 -30 6 -3 16 3 23 13 10 16 6 22 -33 47 -49 30 -49 31 -36 52 8
12 16 10 50 -12 22 -15 45 -27 50 -27 10 0 36 39 29 44 -2 1 -21 13 -42 27
-22 13 -44 27 -48 30 -9 5 -1 39 9 39 3 0 36 -19 74 -42z m1975 -89 c35 -54
50 -69 62 -63 10 4 26 7 36 8 41 2 24 -24 -45 -68 -58 -37 -75 -43 -87 -34
-12 10 -10 16 14 34 l28 23 -36 53 c-48 74 -60 97 -53 108 14 23 38 5 81 -61z
m-126 -22 c0 -24 3 -78 6 -120 l7 -76 -28 -7 c-24 -6 -35 2 -106 72 -43 43
-79 82 -79 86 0 17 43 19 61 2 18 -16 22 -16 54 -1 28 13 35 22 35 46 0 16 6
32 13 34 30 13 37 6 37 -36z m-1704 19 c3 -8 -2 -28 -10 -45 -22 -41 -21 -45
17 -59 45 -16 42 -17 62 28 20 45 19 44 45 30 17 -9 16 -16 -27 -110 -46 -98
-58 -111 -80 -89 -9 9 -8 19 3 41 19 37 16 47 -24 64 -33 13 -33 13 -47 -19
-18 -43 -24 -48 -46 -37 -20 11 -23 2 44 153 25 56 51 74 63 43z m1510 -180
c19 -54 31 -103 28 -107 -3 -5 -13 -9 -23 -9 -15 0 -37 15 -123 88 -17 14 -17
13 -2 -34 29 -91 29 -96 4 -92 -20 2 -28 18 -57 102 -25 76 -30 102 -20 108
22 14 35 8 96 -42 34 -28 61 -49 61 -47 0 2 -9 30 -20 62 -21 60 -19 78 8 73
10 -2 27 -39 48 -102z m-1266 84 c18 -10 18 -13 -10 -96 l-29 -85 29 -11 c29
-10 39 -31 21 -42 -6 -4 -156 39 -169 49 -1 1 1 10 4 19 5 14 14 16 38 12 l32
-6 28 85 c16 47 30 85 33 85 2 0 13 -5 23 -10z m600 -54 c6 -8 26 -16 43 -18
26 -3 32 -8 38 -36 4 -18 14 -41 22 -50 14 -16 14 -19 -3 -42 -11 -14 -20 -37
-20 -52 0 -25 -4 -28 -32 -28 -17 0 -40 -7 -49 -16 -17 -15 -20 -15 -43 0 -14
9 -37 16 -51 16 -21 0 -25 5 -25 29 0 16 -9 39 -19 52 -18 22 -18 26 -4 41 8
9 18 32 22 50 6 28 12 33 38 36 17 2 37 10 43 18 7 8 16 14 20 14 4 0 13 -6
20 -14z"/>
<path class="path1" d="M1926 4304 c-25 -24 -20 -81 9 -109 28 -29 42 -31 73 -9 27 18 30 78
6 112 -18 26 -65 30 -88 6z"/>
<path d="M3382 4088 c-20 -20 -14 -35 18 -48 30 -13 60 -8 60 9 0 10 -48 51
-59 51 -4 0 -12 -5 -19 -12z"/>
<path d="M1337 4062 c-26 -29 -21 -70 13 -103 69 -70 136 26 68 98 -26 28 -59
30 -81 5z"/>
<path d="M2155 4036 c-99 -16 -127 -25 -123 -38 2 -6 73 -52 157 -103 141 -85
155 -92 181 -82 21 8 36 8 56 -2 25 -11 36 -6 182 81 86 51 157 98 159 105 15
43 -411 70 -612 39z"/>
<path d="M1779 3931 c-153 -62 -159 -66 -159 -106 0 -31 -27 -65 -60 -77 -5
-2 -25 -79 -44 -173 -28 -140 -32 -172 -21 -184 11 -11 47 -12 222 -2 183 10
210 13 223 30 22 27 56 42 82 36 19 -4 49 19 158 118 183 167 183 157 -13 277
-143 87 -147 89 -195 83 -42 -5 -53 -2 -71 16 -11 11 -22 21 -23 21 -2 0 -46
-18 -99 -39z"/>
<path d="M2896 3948 c-15 -17 -26 -20 -67 -15 -48 6 -52 4 -196 -84 -149 -90
-176 -116 -151 -147 7 -8 71 -68 143 -132 124 -111 132 -117 167 -112 32 3 42
-1 69 -27 l32 -32 156 -9 c217 -13 213 -13 234 15 17 24 17 28 -14 147 -50
198 -60 228 -73 228 -25 0 -49 28 -55 65 -6 38 -8 39 -106 81 -55 23 -104 43
-110 42 -5 0 -18 -9 -29 -20z"/>
<path d="M3266 3792 c-4 -7 29 -151 75 -324 6 -22 17 -39 29 -43 10 -3 28 -20
39 -38 19 -31 27 -34 178 -70 174 -41 193 -43 193 -24 0 27 -125 184 -224 282
-84 83 -260 225 -279 225 -3 0 -8 -4 -11 -8z"/>
<path d="M1405 3718 c-131 -96 -311 -293 -394 -431 -39 -64 -22 -64 172 -7
164 49 176 54 188 82 6 16 24 35 38 42 24 13 29 26 59 180 30 153 33 186 14
186 -4 0 -38 -23 -77 -52z"/>
<path d="M2389 3660 c-40 -4 -57 -16 -156 -105 -61 -55 -110 -101 -110 -102 1
-1 34 5 72 14 90 20 325 20 415 0 36 -8 66 -14 67 -13 3 2 -218 200 -231 206
-6 3 -32 3 -57 0z"/>
<path d="M2330 3433 c-51 -3 -147 -20 -202 -34 -29 -7 -38 -15 -43 -40 -12
-54 -62 -70 -140 -45 -64 21 -323 -209 -425 -378 -22 -36 -22 -40 -7 -66 35
-58 10 -116 -53 -129 -33 -6 -35 -10 -53 -76 -11 -42 -21 -123 -24 -202 l-6
-132 34 -5 c94 -15 147 -25 171 -31 l26 -7 -10 49 c-15 76 -12 240 6 317 64
271 250 490 498 586 107 41 243 64 344 56 348 -26 629 -248 734 -581 26 -82
39 -301 21 -375 -5 -24 -8 -46 -7 -48 3 -2 99 14 204 34 21 4 22 9 22 102 -1
92 -18 221 -37 270 -5 12 -24 30 -43 40 -44 22 -59 59 -41 107 12 33 10 39
-15 83 -82 141 -251 308 -378 374 -31 16 -44 18 -63 9 -52 -24 -105 0 -119 54
-5 20 -17 26 -77 40 -70 16 -227 36 -257 33 -8 -1 -35 -3 -60 -5z"/>
<path d="M1730 3340 c-58 -4 -129 -8 -157 -9 -38 -1 -53 -5 -53 -15 0 -7 -9
-24 -19 -38 -17 -21 -21 -48 -27 -174 l-6 -149 53 75 c65 92 167 193 256 256
84 59 91 64 73 62 -8 -1 -62 -5 -120 -8z"/>
<path d="M2945 3342 c6 -4 40 -30 78 -56 89 -63 191 -164 256 -256 l53 -75 -6
153 -7 154 -33 33 -34 34 -133 6 c-74 3 -145 8 -159 11 -15 3 -21 2 -15 -4z"/>
<path d="M3391 3289 l-24 -20 11 -185 12 -185 31 -31 c25 -25 30 -38 27 -68
-3 -35 4 -46 122 -178 118 -133 127 -140 159 -138 32 3 37 10 123 156 63 108
86 156 79 163 -18 18 -13 62 10 91 l21 27 -21 59 c-12 33 -33 84 -46 115 -22
49 -28 55 -55 55 -32 0 -80 37 -80 62 0 9 -55 26 -162 52 -90 21 -167 40 -173
42 -5 2 -21 -6 -34 -17z"/>
<path d="M1265 3253 c-44 -13 -117 -36 -161 -49 -69 -21 -83 -29 -88 -49 -8
-32 -49 -59 -80 -53 -22 4 -28 -1 -47 -46 -12 -28 -32 -81 -45 -118 -22 -65
-22 -67 -4 -83 24 -22 34 -68 21 -93 -9 -16 5 -43 82 -161 83 -128 95 -141
118 -139 20 2 62 42 168 160 123 137 141 162 141 191 0 19 9 46 21 60 17 22
22 49 29 169 14 212 15 205 -20 223 -36 19 -38 19 -135 -12z"/>
<path d="M2235 3253 c-393 -84 -665 -464 -616 -861 12 -100 21 -122 52 -122
16 0 17 3 6 33 -7 19 -12 90 -12 182 0 143 2 154 31 238 44 122 86 189 179
283 91 91 184 149 310 191 70 23 97 26 210 27 138 0 206 -13 310 -58 290 -129
479 -459 436 -765 -6 -47 -14 -98 -17 -113 -5 -23 -3 -26 14 -21 26 6 28 13
42 115 22 158 -8 317 -87 472 -83 159 -254 309 -419 367 -142 50 -301 62 -439
32z"/>
<path d="M2262 3130 c-57 -39 -140 -125 -129 -136 3 -3 57 -2 121 2 l116 7 0
83 c0 82 -1 84 -24 84 -13 0 -51 -18 -84 -40z"/>
<path d="M2430 3086 l0 -83 126 -7 c69 -4 128 -5 131 -2 2 2 -24 33 -59 69
-66 67 -130 107 -173 107 -25 0 -25 -1 -25 -84z"/>
<path d="M2077 3087 c-64 -36 -171 -117 -163 -124 8 -9 117 9 126 21 82 103
101 128 98 131 -2 2 -30 -10 -61 -28z"/>
<path d="M2721 3050 c51 -71 56 -75 124 -83 l50 -6 -46 42 c-25 24 -74 58
-109 76 l-62 33 43 -62z"/>
<path d="M2305 2933 c-22 -1 -81 -5 -132 -9 l-91 -6 -20 -46 c-26 -62 -52
-150 -52 -179 l0 -23 180 0 180 0 0 135 c0 102 -3 135 -12 133 -7 -1 -31 -3
-53 -5z"/>
<path d="M2432 2807 l3 -132 179 -3 c99 -1 183 1 188 6 9 9 -33 166 -57 212
-17 33 -30 36 -208 44 l-108 6 3 -133z"/>
<path d="M1912 2896 c-35 -7 -69 -19 -76 -27 -22 -22 -75 -131 -82 -167 l-7
-33 93 3 93 3 23 88 c13 48 30 101 39 117 18 35 18 35 -83 16z"/>
<path d="M2812 2899 c13 -35 48 -148 58 -186 l11 -43 84 0 c48 0 87 4 90 11 4
5 -15 54 -42 107 -52 104 -50 103 -154 117 -42 6 -51 5 -47 -6z"/>
<path d="M3909 2638 c-39 -68 -80 -137 -91 -155 -13 -22 -15 -33 -7 -39 7 -4
9 -23 6 -50 -4 -42 1 -53 80 -182 47 -75 87 -139 89 -141 13 -14 28 28 41 115
26 174 3 574 -33 574 -7 0 -45 -55 -85 -122z"/>
<path d="M773 2653 c-4 -32 -7 -150 -7 -263 2 -159 6 -224 20 -289 11 -47 24
-86 30 -88 7 -2 50 67 98 153 72 132 84 159 75 176 -6 12 -8 38 -5 59 6 35 -1
48 -82 173 -54 84 -93 136 -104 136 -13 0 -18 -13 -25 -57z"/>
<path d="M1242 2563 c-145 -161 -146 -139 18 -323 46 -52 86 -97 87 -99 10
-15 9 13 -4 69 -19 87 -19 304 0 400 8 41 14 76 13 77 -1 1 -52 -55 -114 -124z"/>
<path d="M3443 2675 c32 -112 39 -339 14 -465 -8 -41 -14 -76 -14 -76 1 -1 49
51 107 116 148 165 148 157 7 313 -60 67 -112 124 -115 127 -2 3 -2 -4 1 -15z"/>
<path d="M1727 2603 c-9 -8 -9 -216 -1 -237 5 -13 24 -16 100 -16 l94 0 0 130
0 130 -93 0 c-52 0 -97 -3 -100 -7z"/>
<path d="M1992 2483 l3 -128 188 -3 187 -2 0 130 0 130 -190 0 -191 0 3 -127z"/>
<path d="M2430 2480 l0 -130 194 0 193 0 5 72 c3 40 3 99 0 130 l-5 58 -193 0
-194 0 0 -130z"/>
<path d="M2894 2480 l1 -130 91 0 91 0 7 46 c8 59 8 128 0 177 l-7 37 -92 0
-91 0 0 -130z"/>
<path d="M3570 2197 c-74 -83 -124 -147 -121 -156 2 -9 4 -34 5 -56 1 -34 -3
-42 -31 -60 -38 -24 -40 -34 -49 -237 -5 -127 -4 -158 6 -158 8 0 21 -7 31
-16 15 -14 31 -11 179 27 110 29 164 48 168 58 11 32 46 61 74 61 24 0 32 8
57 58 15 31 40 89 54 129 23 64 24 73 10 84 -25 22 -35 60 -23 89 10 25 4 39
-76 169 -58 93 -92 140 -101 137 -7 -3 -23 -2 -36 3 -20 8 -35 -6 -147 -132z"/>
<path d="M1100 2310 c-8 -5 -24 -10 -35 -10 -15 0 -39 -34 -102 -148 -79 -143
-82 -150 -77 -198 5 -40 2 -54 -13 -73 -20 -25 -20 -25 2 -80 12 -31 37 -86
56 -123 26 -53 37 -67 51 -62 25 8 77 -23 84 -50 5 -21 19 -26 153 -54 81 -18
154 -32 162 -32 9 0 24 9 34 20 18 20 18 31 8 214 -11 189 -12 194 -38 220
-22 22 -26 34 -23 70 3 43 1 46 -117 179 -66 75 -122 136 -125 136 -3 0 -12
-4 -20 -9z"/>
<path d="M1390 2254 c0 -53 8 -64 50 -64 55 0 186 -27 266 -54 139 -47 286
-133 420 -247 76 -64 164 -159 149 -159 -4 0 -45 36 -91 79 -151 143 -329 244
-515 291 -90 23 -249 38 -249 24 1 -27 14 -54 27 -54 8 0 27 -8 41 -19 16 -10
55 -21 92 -25 217 -24 450 -118 613 -247 42 -34 77 -66 77 -72 0 -6 -4 -6 -12
1 -73 58 -160 118 -207 141 -119 60 -329 121 -468 135 l-61 7 -12 -36 c-12
-35 -10 -39 34 -106 26 -38 51 -67 56 -64 9 6 201 -35 405 -86 179 -45 225
-59 225 -72 0 -6 10 -21 22 -34 12 -13 19 -25 16 -28 -2 -3 -31 4 -64 16 -80
28 -425 124 -499 139 -33 7 -71 21 -85 33 -14 11 16 -20 66 -70 50 -50 125
-111 167 -137 l75 -47 26 26 c26 26 64 32 95 15 22 -11 44 -60 39 -86 -2 -15
10 -22 62 -38 95 -28 393 -28 495 0 54 15 71 24 73 39 10 54 70 79 126 54 22
-10 34 -6 102 36 42 26 118 88 168 138 50 50 80 81 66 69 -15 -12 -77 -32
-160 -52 -114 -27 -408 -111 -475 -136 -16 -6 -14 -1 9 24 15 17 25 35 22 40
-7 11 33 24 219 71 191 48 397 91 406 85 11 -6 109 142 109 165 -1 40 -13 44
-106 32 -253 -34 -457 -116 -645 -261 l-26 -20 -1 28 c0 20 17 43 67 92 210
206 480 341 731 366 72 8 80 14 80 62 0 28 -3 32 -27 32 -72 0 -266 -61 -382
-119 -151 -77 -357 -243 -451 -365 -43 -55 -78 -61 -122 -19 l-28 27 -28 -27
c-44 -42 -80 -36 -122 20 -51 67 -177 191 -248 243 -175 128 -364 209 -554
238 l-58 9 0 -33z m1061 -564 c8 -1 22 -17 31 -37 15 -33 16 -39 3 -53 -8 -9
-15 -24 -15 -33 0 -11 -8 -17 -23 -17 -13 0 -28 -5 -34 -11 -7 -7 -17 -7 -29
-1 -11 6 -27 13 -36 16 -10 3 -18 14 -18 24 0 10 -5 23 -12 30 -9 9 -9 15 0
24 7 7 12 22 12 35 0 18 6 23 24 23 13 0 29 7 36 15 12 14 15 14 30 0 9 -8 23
-15 31 -15z"/>
<path d="M1750 2273 c0 -29 11 -39 80 -73 36 -18 84 -46 107 -61 23 -16 43
-29 46 -29 2 0 -8 35 -21 78 -14 42 -27 83 -28 90 -2 8 -30 12 -94 12 -79 0
-90 -2 -90 -17z"/>
<path d="M2010 2276 c0 -25 49 -170 64 -191 15 -20 99 -32 239 -34 l57 -1 0
120 0 120 -180 0 c-150 0 -180 -2 -180 -14z"/>
<path d="M2430 2170 l0 -120 98 1 c53 1 122 4 152 7 l55 7 32 85 c18 47 32 97
33 113 l0 27 -185 0 -185 0 0 -120z"/>
<path d="M2860 2213 c-13 -43 -26 -84 -28 -92 -2 -7 15 0 40 16 23 17 71 45
106 63 55 28 82 57 82 86 0 2 -40 4 -88 4 l-88 0 -24 -77z"/>
<path d="M3245 2123 c-119 -17 -302 -85 -419 -156 -76 -46 -200 -144 -251
-198 -22 -24 -33 -38 -25 -32 8 6 46 34 83 62 78 59 236 138 350 175 82 27
227 56 283 56 31 0 104 34 104 48 0 4 3 17 6 30 6 21 4 22 -47 21 -30 -1 -67
-4 -84 -6z"/>
<path d="M2171 1929 c116 -131 114 -129 158 -129 l41 0 0 89 0 89 -77 6 c-43
4 -102 9 -132 12 l-54 6 64 -73z"/>
<path d="M2630 1993 c-19 -1 -72 -6 -117 -9 l-83 -6 0 -90 0 -91 52 5 c43 5
57 11 81 39 16 19 53 62 84 97 38 44 49 62 36 60 -10 0 -34 -3 -53 -5z"/>
<path d="M1470 1813 c0 -27 3 -105 7 -175 6 -125 6 -127 32 -137 26 -10 341
-27 341 -19 0 3 -26 22 -57 43 -80 52 -225 196 -275 272 -23 35 -43 63 -45 63
-2 0 -3 -21 -3 -47z"/>
<path d="M3289 1807 c-61 -95 -199 -228 -325 -315 -28 -19 303 -6 332 13 20
13 22 26 29 180 4 91 5 168 3 171 -3 2 -20 -20 -39 -49z"/>
<path d="M3606 1494 c-87 -24 -159 -44 -160 -46 -29 -47 -41 -60 -62 -68 -13
-5 -24 -15 -24 -22 -1 -7 -16 -77 -34 -156 -28 -118 -31 -144 -20 -149 21 -8
155 97 264 208 104 105 218 255 204 268 -5 5 -80 -11 -168 -35z"/>
<path d="M1056 1481 c-13 -21 157 -217 276 -317 101 -84 207 -158 215 -150 3
3 -8 56 -26 118 -18 62 -39 137 -48 166 -11 40 -21 56 -39 62 -14 6 -32 23
-41 39 -16 26 -27 31 -163 60 -161 34 -166 35 -174 22z"/>
<path d="M1540 1425 c0 -9 -7 -27 -16 -40 -15 -23 -13 -34 30 -186 25 -89 46
-162 48 -163 48 -20 64 -36 72 -69 9 -34 15 -39 93 -71 141 -59 156 -62 191
-36 25 18 38 22 71 16 38 -6 48 -1 168 75 70 44 129 82 130 82 0 1 4 18 8 37
6 35 5 36 -154 178 -88 78 -168 142 -178 142 -10 0 -29 7 -41 16 -16 11 -64
18 -170 24 -217 14 -252 13 -252 -5z"/>
<path d="M3005 1430 c-60 -4 -115 -8 -122 -9 -6 0 -14 -10 -18 -20 -7 -24 -55
-44 -86 -36 -20 4 -47 -15 -164 -121 -77 -69 -141 -129 -143 -134 -2 -4 2 -11
7 -15 6 -3 11 -17 11 -29 0 -19 24 -37 144 -104 139 -79 145 -81 193 -75 43 5
54 2 72 -16 l21 -21 76 30 c124 50 174 78 174 100 0 33 22 68 50 80 25 10 29
21 59 161 33 150 33 151 15 185 l-19 34 -80 -2 c-44 -1 -129 -5 -190 -8z"/>
<path d="M2175 1319 c182 -165 211 -189 225 -189 8 0 75 54 148 120 72 66 131
120 130 120 -2 0 -38 -7 -81 -15 -125 -24 -328 -19 -452 10 -27 7 -24 2 30
-46z"/>
<path d="M2217 907 c-82 -53 -126 -87 -124 -97 10 -55 655 -45 664 10 2 10
-44 41 -137 93 -136 76 -141 78 -175 66 -26 -10 -40 -10 -60 -1 -14 7 -29 12
-33 11 -4 0 -64 -37 -135 -82z"/>
<path d="M1124 3905 c-28 -29 -26 -54 9 -92 23 -25 75 -31 95 -11 22 22 14 68
-17 99 -36 36 -54 36 -87 4z"/>
<path d="M3751 3796 l-23 -24 26 -17 c47 -31 79 11 38 48 -17 16 -20 15 -41
-7z"/>
<path d="M4052 3441 c-12 -7 -11 -14 2 -40 18 -33 43 -41 52 -16 6 15 -20 65
-34 65 -4 0 -13 -4 -20 -9z"/>
<path d="M3970 3385 c-10 -12 -9 -20 4 -40 37 -57 81 -40 53 20 -18 37 -37 44
-57 20z"/>
<path d="M491 2753 l-34 -5 29 -19 c37 -24 41 -24 46 6 3 14 2 24 -1 23 -3 0
-21 -3 -40 -5z"/>
<path d="M4268 2509 c-28 -16 -24 -75 7 -95 27 -17 76 -14 102 7 20 18 17 76
-6 89 -25 13 -81 13 -103 -1z"/>
<path d="M538 1794 c-20 -10 -28 -22 -28 -42 0 -53 11 -57 84 -32 36 12 66 24
66 26 0 3 -7 18 -15 34 -12 24 -22 30 -48 30 -17 -1 -44 -8 -59 -16z"/>
<path d="M4016 1474 c-37 -55 6 -87 45 -33 22 31 22 32 4 45 -26 19 -30 18
-49 -12z"/>
<path d="M4100 1426 c-13 -26 -8 -56 10 -56 6 0 19 14 30 32 15 24 16 34 7 40
-21 13 -33 9 -47 -16z"/>
<path d="M894 1095 c-3 -8 4 -28 16 -44 18 -27 24 -29 41 -18 25 16 24 29 -4
55 -27 26 -45 28 -53 7z"/>
<path d="M1063 924 c-3 -8 4 -25 18 -40 23 -24 23 -24 43 -5 19 20 19 21 1 41
-22 24 -53 26 -62 4z"/>
<path d="M3202 652 c-9 -6 -6 -14 13 -32 l25 -23 0 31 c0 32 -12 40 -38 24z"/>
<path d="M2385 560 c-3 -5 -15 -10 -26 -10 -10 0 -19 -7 -19 -15 0 -8 -6 -24
-12 -35 -10 -15 -10 -22 0 -32 6 -6 12 -20 12 -30 0 -11 7 -18 18 -18 10 0 23
-5 30 -12 9 -9 15 -9 24 0 7 7 20 12 30 12 11 0 18 7 18 18 0 10 6 24 12 30
10 10 10 17 0 32 -6 11 -12 27 -12 35 0 8 -9 15 -19 15 -11 0 -23 5 -26 10 -3
6 -10 10 -15 10 -5 0 -12 -4 -15 -10z"/>
</g>
</svg>
